<svg width="16" height="16" viewBox="0 0 16 16" fill="none" xmlns="http://www.w3.org/2000/svg">
<g clip-path="url(#clip0_7422_2397)">
<path d="M4.00016 4.00025L5.3335 2.66692M5.3335 2.66692L4.00016 1.33359M5.3335 2.66692H4.00016C2.5274 2.66692 1.3335 3.86083 1.3335 5.33359M12.0002 12.0003L10.6668 13.3336M10.6668 13.3336L12.0002 14.6669M10.6668 13.3336H12.0002C13.4729 13.3336 14.6668 12.1397 14.6668 10.6669M6.79285 4.33359C7.23689 2.60836 8.80299 1.33359 10.6668 1.33359C12.876 1.33359 14.6668 3.12445 14.6668 5.33359C14.6668 7.19741 13.3921 8.7635 11.6669 9.20756M9.3335 10.6669C9.3335 12.8761 7.54264 14.6669 5.3335 14.6669C3.12436 14.6669 1.3335 12.8761 1.3335 10.6669C1.3335 8.45778 3.12436 6.66692 5.3335 6.66692C7.54264 6.66692 9.3335 8.45778 9.3335 10.6669Z" stroke="#2ED3B7" stroke-width="2" stroke-linecap="round" stroke-linejoin="round"/>
</g>
<defs>
<clipPath id="clip0_7422_2397">
<rect width="16" height="16" fill="white" transform="translate(0 0.000244141)"/>
</clipPath>
</defs>
</svg>
