<svg width="19" height="24" viewBox="0 0 19 24" fill="none" xmlns="http://www.w3.org/2000/svg">
<path d="M12.3744 0.7349C12.3744 0.316645 12.025 -0.0249024 11.5954 0.00142695C10.2368 0.0846826 8.89984 0.385292 7.6389 0.892735C6.13757 1.49692 4.77343 2.38248 3.62437 3.49887C2.4753 4.61525 1.56381 5.94059 0.941942 7.39922C0.320072 8.85785 -1.42064e-07 10.4212 0 12C1.42064e-07 13.5788 0.320073 15.1422 0.941943 16.6008C1.56381 18.0594 2.4753 19.3847 3.62437 20.5011C4.77343 21.6175 6.13757 22.5031 7.6389 23.1073C8.89984 23.6147 10.2368 23.9153 11.5954 23.9986C12.025 24.0249 12.3744 23.6834 12.3744 23.2651L12.3744 0.7349Z" fill="url(#paint0_linear_7422_241)"/>
<path d="M19.0016 3.1963C19.0016 2.77805 18.652 2.43574 18.223 2.47016C15.9497 2.65256 13.8053 3.62913 12.1808 5.23938C10.3718 7.03244 9.35547 9.46435 9.35547 12.0001C9.35547 14.5359 10.3718 16.9678 12.1808 18.7609C13.8053 20.3711 15.9497 21.3477 18.223 21.5301C18.652 21.5645 19.0016 21.2222 19.0016 20.8039V3.1963Z" fill="url(#paint1_linear_7422_241)"/>
<defs>
<linearGradient id="paint0_linear_7422_241" x1="-0.150057" y1="26.549" x2="18.4302" y2="-3.51246" gradientUnits="userSpaceOnUse">
<stop stop-color="#0194FF"/>
<stop offset="1" stop-color="#1FF8D1"/>
</linearGradient>
<linearGradient id="paint1_linear_7422_241" x1="9.2385" y1="23.5573" x2="24.1208" y2="-0.0714311" gradientUnits="userSpaceOnUse">
<stop stop-color="#0194FF"/>
<stop offset="1" stop-color="#1FF8D1"/>
</linearGradient>
</defs>
</svg>
