<svg width="56" height="56" viewBox="0 0 56 56" fill="none" xmlns="http://www.w3.org/2000/svg">
<rect width="56" height="56" rx="16" fill="white" fill-opacity="0.06"/>
<path d="M34 34H23.0667C22.6933 34 22.5066 34 22.364 33.9273C22.2386 33.8634 22.1366 33.7614 22.0727 33.636C22 33.4934 22 33.3067 22 32.9333V22M33.3333 25.3333L30.7208 28.1218C30.6217 28.2274 30.5722 28.2803 30.5125 28.3076C30.4598 28.3317 30.4017 28.3416 30.344 28.3364C30.2786 28.3305 30.2143 28.2972 30.0858 28.2304L27.9142 27.1029C27.7857 27.0362 27.7214 27.0028 27.656 26.9969C27.5983 26.9917 27.5402 27.0016 27.4875 27.0257C27.4278 27.053 27.3783 27.1059 27.2792 27.2116L24.6667 30" stroke="white" stroke-width="1.33" stroke-linecap="round" stroke-linejoin="round"/>
</svg>
